# xmcd CD database file
#
# Track frame offsets:
#	150
#	20109
#	40692
#	60361
#	80561
#	106699
#	126744
#	148598
#	169980
#	188753
#	212546
#	231714
#
# Disc length: 3390 seconds
#
# Revision: 0
# Processed by: cddbd v1.5.2PL0 Copyright (c) Steve Scherf et al.
# Submitted via: CDex 1.51
#
DISCID=ab0d3c0c
DTITLE=Various Artist - Aqui Esta La Salsa
DYEAR=2001
DGENRE=Salsa
TTITLE0=Hablame
TTITLE1=Solito, Solo
TTITLE2=Epilogo (Tona Bicicleta)
TTITLE3=Amor Mio
TTITLE4=Senora De Madrugada
TTITLE5=Con Loco Desenfreno
TTITLE6=Herida
TTITLE7=Una Y Mil Veces
TTITLE8=12 Rosas
TTITLE9=Como Una Loba
TTITLE10=Regresa A Mi
TTITLE11=Dos Copas De Vino
EXTD=YEAR: 2001
EXTT0=
EXTT1=
EXTT2=
EXTT3=
EXTT4=
EXTT5=
EXTT6=
EXTT7=
EXTT8=
EXTT9=
EXTT10=
EXTT11=
PLAYORDER=
